<svg width="40" height="40" viewBox="0 0 40 40" fill="none" xmlns="http://www.w3.org/2000/svg">
<path d="M36.4509 27.6233C34.645 31.5052 31.5047 34.645 27.6233 36.4509C27.3133 36.5954 27.0143 36.2187 27.2294 35.953C27.7357 35.3278 28.2152 34.6318 28.663 33.8683C28.9765 33.3335 29.2694 32.7737 29.5412 32.1914C30.0847 31.027 31.027 30.0843 32.1914 29.5412C32.7737 29.2694 33.3339 28.9765 33.8683 28.663C34.6318 28.2151 35.3278 27.7357 35.9526 27.2294C36.2187 27.0143 36.5954 27.3133 36.4509 27.6233ZM20 38.0114C17.0494 38.0114 14.3895 35.7761 12.5286 32.2143C12.2867 31.751 12.6946 31.2206 13.2053 31.3322C15.3546 31.8002 17.6461 32.0465 20 32.0465C22.3539 32.0465 24.6454 31.8002 26.7947 31.3322C27.3054 31.2206 27.7133 31.751 27.4714 32.2143C25.6105 35.7761 22.951 38.0114 20 38.0114ZM12.3772 36.4509C8.49528 34.6454 5.35499 31.5052 3.54907 27.6233C3.40505 27.3128 3.78134 27.0143 4.04742 27.2294C4.67267 27.7357 5.36817 28.2151 6.13216 28.663C6.66652 28.9765 7.22634 29.2694 7.80856 29.5412C8.973 30.0843 9.9157 31.027 10.4588 32.1914C10.7306 32.7737 11.0235 33.3335 11.337 33.8683C11.7853 34.6318 12.2648 35.3278 12.771 35.953C12.9862 36.2187 12.6872 36.5954 12.3772 36.4509ZM7.78573 12.5287C8.24896 12.2867 8.77936 12.6946 8.66828 13.2053C8.19978 15.3546 7.9539 17.6461 7.9539 20C7.9539 22.3539 8.19978 24.6459 8.66828 26.7947C8.77936 27.3054 8.24896 27.7133 7.78573 27.4713C4.22437 25.6105 1.98858 22.951 1.98858 20C1.98858 17.0494 4.22437 14.3895 7.78573 12.5287ZM3.54951 12.3767C5.35543 8.49528 8.49528 5.35499 12.3767 3.54951C12.6867 3.40505 12.9857 3.78178 12.7706 4.04742C12.2643 4.67267 11.7849 5.36817 11.337 6.13173C11.0235 6.66652 10.7311 7.22635 10.4593 7.80856C9.9157 8.97344 8.973 9.9157 7.80856 10.4593C7.22634 10.7311 6.66652 11.0235 6.13216 11.337C5.36817 11.7849 4.67267 12.2643 4.04742 12.7706C3.78178 12.9857 3.40505 12.6867 3.54951 12.3767ZM20 1.98858C22.951 1.98858 25.611 4.22437 27.4714 7.78573C27.7133 8.24896 27.3054 8.77936 26.7947 8.66827C24.6459 8.19978 22.3539 7.9539 20 7.9539C17.6461 7.9539 15.3546 8.19978 13.2053 8.66827C12.6946 8.7798 12.2867 8.24896 12.5286 7.78573C14.3895 4.22437 17.0494 1.98858 20 1.98858ZM30.1796 20C30.1796 22.2419 29.946 24.3881 29.5205 26.3688C29.1807 27.9504 27.9504 29.1807 26.3688 29.5205C24.3881 29.946 22.2419 30.18 20 30.18C17.7581 30.18 15.6119 29.946 13.6312 29.5205C12.0496 29.1807 10.8198 27.9504 10.4799 26.3688C10.054 24.3881 9.82042 22.2419 9.82042 20C9.82042 17.7585 10.054 15.6123 10.4799 13.6312C10.8193 12.0501 12.0496 10.8198 13.6312 10.4799C15.6119 10.054 17.7581 9.82042 20 9.82042C22.2419 9.82042 24.3881 10.054 26.3688 10.4799C27.9504 10.8198 29.1807 12.0496 29.5205 13.6312C29.946 15.6123 30.1796 17.7581 30.1796 20ZM27.6237 3.54951C31.5052 5.35543 34.645 8.49528 36.4505 12.3767C36.595 12.6867 36.2182 12.9857 35.9526 12.7706C35.3273 12.2643 34.6318 11.7849 33.8683 11.337C33.3339 11.0235 32.7737 10.7306 32.1919 10.4593C31.027 9.9157 30.0847 8.973 29.5412 7.80856C29.2694 7.22635 28.9765 6.66652 28.663 6.13173C28.2152 5.36817 27.7357 4.67267 27.2299 4.04742C27.0147 3.78178 27.3133 3.40505 27.6237 3.54951ZM31.3317 13.2053C31.2206 12.6946 31.751 12.2867 32.2143 12.5287C35.7761 14.3895 38.0114 17.0494 38.0114 20C38.0114 22.951 35.7761 25.611 32.2143 27.4713C31.751 27.7133 31.2206 27.3054 31.3317 26.7952C31.8002 24.6459 32.0461 22.3539 32.0461 20C32.0461 17.6461 31.8002 15.3546 31.3317 13.2053ZM20 0C8.97212 0 0 8.97212 0 20C0 31.0283 8.97212 40 20 40C31.0279 40 40 31.0283 40 20C40 8.97212 31.0279 0 20 0Z" fill="#251F20"/>
<path d="M21.1512 14.9723C20.5154 14.3365 19.4845 14.3365 18.8487 14.9723L14.9721 18.8489C14.3363 19.4847 14.3363 20.5156 14.9721 21.1514L18.8487 25.028C19.4845 25.6638 20.5154 25.6638 21.1512 25.028L25.0278 21.1514C25.6636 20.5156 25.6636 19.4847 25.0278 18.8489L21.1512 14.9723Z" fill="#251F20"/>
</svg>
