<svg width="40" height="40" viewBox="0 0 40 40" fill="none" xmlns="http://www.w3.org/2000/svg">
<circle cx="20" cy="20" r="19.075" transform="rotate(-90 20 20)" stroke="black" stroke-width="1.85"/>
<circle cx="20" cy="20" r="19.075" transform="rotate(-90 20 20)" stroke="black" stroke-width="1.85"/>
<path d="M20 0.924805C22.8611 0.924805 25.6097 2.8629 27.6924 6.33398C29.7639 9.78664 31.0752 14.6161 31.0752 20C31.0752 25.3839 29.7639 30.2134 27.6924 33.666C25.6097 37.1371 22.8611 39.0752 20 39.0752C17.1389 39.0752 14.3903 37.1371 12.3076 33.666C10.2361 30.2134 8.9248 25.3839 8.9248 20C8.9248 14.6161 10.2361 9.78664 12.3076 6.33398C14.3903 2.8629 17.1389 0.924805 20 0.924805Z" stroke="black" stroke-width="1.85"/>
<path d="M20 0.924805C22.8611 0.924805 25.6097 2.8629 27.6924 6.33398C29.7639 9.78664 31.0752 14.6161 31.0752 20C31.0752 25.3839 29.7639 30.2134 27.6924 33.666C25.6097 37.1371 22.8611 39.0752 20 39.0752C17.1389 39.0752 14.3903 37.1371 12.3076 33.666C10.2361 30.2134 8.9248 25.3839 8.9248 20C8.9248 14.6161 10.2361 9.78664 12.3076 6.33398C14.3903 2.8629 17.1389 0.924805 20 0.924805Z" stroke="black" stroke-width="1.85"/>
<path d="M0.924804 20C0.924804 17.1389 2.8629 14.3903 6.33398 12.3076C9.78664 10.2361 14.6161 8.9248 20 8.9248C25.3839 8.9248 30.2134 10.2361 33.666 12.3076C37.1371 14.3903 39.0752 17.1389 39.0752 20C39.0752 22.8611 37.1371 25.6097 33.666 27.6924C30.2134 29.7639 25.3839 31.0752 20 31.0752C14.6161 31.0752 9.78664 29.7639 6.33398 27.6924C2.8629 25.6097 0.924804 22.8611 0.924804 20Z" stroke="black" stroke-width="1.85"/>
<path d="M0.924804 20C0.924804 17.1389 2.8629 14.3903 6.33398 12.3076C9.78664 10.2361 14.6161 8.9248 20 8.9248C25.3839 8.9248 30.2134 10.2361 33.666 12.3076C37.1371 14.3903 39.0752 17.1389 39.0752 20C39.0752 22.8611 37.1371 25.6097 33.666 27.6924C30.2134 29.7639 25.3839 31.0752 20 31.0752C14.6161 31.0752 9.78664 29.7639 6.33398 27.6924C2.8629 25.6097 0.924804 22.8611 0.924804 20Z" stroke="black" stroke-width="1.85"/>
<path d="M21.1511 14.9722C20.5153 14.3364 19.4844 14.3364 18.8486 14.9722L14.972 18.8488C14.3362 19.4846 14.3362 20.5156 14.972 21.1513L18.8486 25.028C19.4844 25.6637 20.5153 25.6637 21.1511 25.028L25.0277 21.1513C25.6635 20.5156 25.6635 19.4846 25.0277 18.8488L21.1511 14.9722Z" fill="black"/>
</svg>
